<?xml version="1.0" encoding="UTF-8" standalone="no"?>
<!-- Created with Inkscape (http://www.inkscape.org/) -->

<svg
   xmlns:dc="http://purl.org/dc/elements/1.1/"
   xmlns:cc="http://creativecommons.org/ns#"
   xmlns:rdf="http://www.w3.org/1999/02/22-rdf-syntax-ns#"
   xmlns:svg="http://www.w3.org/2000/svg"
   xmlns="http://www.w3.org/2000/svg"
   xmlns:xlink="http://www.w3.org/1999/xlink"
   xmlns:sodipodi="http://sodipodi.sourceforge.net/DTD/sodipodi-0.dtd"
   xmlns:inkscape="http://www.inkscape.org/namespaces/inkscape"
   version="1.1"
   width="600"
   height="600"
   id="svg3063"
   inkscape:version="0.48.1 r9760"
   sodipodi:docname="ext-kotnet-disconnected.svg">
  <sodipodi:namedview
     pagecolor="#ffffff"
     bordercolor="#666666"
     borderopacity="1"
     objecttolerance="10"
     gridtolerance="10"
     guidetolerance="10"
     inkscape:pageopacity="0"
     inkscape:pageshadow="2"
     inkscape:window-width="1920"
     inkscape:window-height="1021"
     id="namedview58"
     showgrid="false"
     inkscape:zoom="0.33234019"
     inkscape:cx="-321.19591"
     inkscape:cy="408.38266"
     inkscape:window-x="1920"
     inkscape:window-y="27"
     inkscape:window-maximized="1"
     inkscape:current-layer="svg3063" />
  <defs
     id="defs3065">
    <clipPath
       id="SVGID_5_">
      <use
         id="use3018"
         style="overflow:visible"
         x="0"
         y="0"
         width="1"
         height="1"
         xlink:href="#SVGID_4_" />
    </clipPath>
    <clipPath
       id="SVGID_5_-7">
      <use
         id="use3018-6"
         style="overflow:visible"
         x="0"
         y="0"
         width="1"
         height="1"
         xlink:href="#SVGID_4_" />
    </clipPath>
    <clipPath
       id="SVGID_5_-1">
      <use
         id="use3018-4"
         style="overflow:visible"
         x="0"
         y="0"
         width="1"
         height="1"
         xlink:href="#SVGID_4_" />
    </clipPath>
    <clipPath
       id="SVGID_5_-12">
      <use
         id="use3018-3"
         style="overflow:visible"
         x="0"
         y="0"
         width="1"
         height="1"
         xlink:href="#SVGID_4_" />
    </clipPath>
    <clipPath
       id="SVGID_5_-3">
      <use
         id="use3018-41"
         style="overflow:visible"
         x="0"
         y="0"
         width="1"
         height="1"
         xlink:href="#SVGID_4_" />
    </clipPath>
    <clipPath
       id="SVGID_5_-0">
      <use
         id="use3018-2"
         style="overflow:visible"
         x="0"
         y="0"
         width="1"
         height="1"
         xlink:href="#SVGID_4_" />
    </clipPath>
    <clipPath
       id="SVGID_5_-8">
      <use
         id="use3018-65"
         style="overflow:visible"
         x="0"
         y="0"
         width="1"
         height="1"
         xlink:href="#SVGID_4_" />
    </clipPath>
    <clipPath
       id="SVGID_5_-06">
      <use
         id="use3018-1"
         style="overflow:visible"
         x="0"
         y="0"
         width="1"
         height="1"
         xlink:href="#SVGID_4_" />
    </clipPath>
    <clipPath
       id="SVGID_5_-82">
      <use
         id="use3018-9"
         style="overflow:visible"
         x="0"
         y="0"
         width="1"
         height="1"
         xlink:href="#SVGID_4_" />
    </clipPath>
    <defs
       id="defs3508">
      <path
         d="m 23.589,42.098 c 10.277,0 18.616,-8.373 18.616,-18.645 0,-10.207 -8.338,-18.581 -18.616,-18.581 -10.206,0 -18.615,8.374 -18.615,18.581 0,10.272 8.41,18.645 18.615,18.645 z"
         id="SVGID_3_" />
    </defs>
    <clipPath
       id="SVGID_4_">
      <use
         id="use3512"
         style="overflow:visible"
         x="0"
         y="0"
         width="1"
         height="1"
         xlink:href="#SVGID_3_" />
    </clipPath>
    <radialGradient
       cx="685.64899"
       cy="995.40698"
       r="96.022903"
       id="SVGID_5_-4"
       gradientUnits="userSpaceOnUse"
       gradientTransform="matrix(0.315,0,0,0.315,-193.939,-303.123)">
      <stop
         id="stop3515"
         style="stop-color:#ffffff;stop-opacity:1"
         offset="0" />
      <stop
         id="stop3517"
         style="stop-color:#57adff;stop-opacity:1"
         offset="0.59549999" />
      <stop
         id="stop3519"
         style="stop-color:#c9e6ff;stop-opacity:1"
         offset="0.99440002" />
    </radialGradient>
    <linearGradient
       x1="868.99597"
       y1="-1149.41"
       x2="868.99597"
       y2="-1269.5601"
       id="SVGID_6_"
       gradientUnits="userSpaceOnUse"
       gradientTransform="matrix(0.315,0,0,-0.315,-250.166,-358.406)">
      <stop
         id="stop3524"
         style="stop-color:#006a00;stop-opacity:1"
         offset="0" />
      <stop
         id="stop3526"
         style="stop-color:#004000;stop-opacity:1"
         offset="0.2" />
      <stop
         id="stop3528"
         style="stop-color:#00bd00;stop-opacity:1"
         offset="1" />
    </linearGradient>
    <radialGradient
       cx="685.64899"
       cy="995.40698"
       r="96.022903"
       id="radialGradient3603"
       xlink:href="#SVGID_5_-4"
       gradientUnits="userSpaceOnUse"
       gradientTransform="matrix(0.315,0,0,0.315,-193.939,-303.123)" />
    <radialGradient
       gradientTransform="matrix(7.6562887,0,0,7.6562887,-72.160001,452.7993)"
       gradientUnits="userSpaceOnUse"
       id="SVGID_1_"
       r="20.4727"
       cy="24.3286"
       cx="24.223101">
      <stop
         offset="0.94760001"
         style="stop-color:#000000;stop-opacity:0.40000001"
         id="stop3491" />
      <stop
         offset="1"
         style="stop-color:#000000;stop-opacity:0"
         id="stop3493" />
    </radialGradient>
    <linearGradient
       gradientTransform="matrix(2.4117309,0,0,2.4117309,-1392.3581,-2431.4769)"
       gradientUnits="userSpaceOnUse"
       id="SVGID_2_"
       y2="1036.85"
       x2="755.56299"
       y1="1036.85"
       x1="625.57001">
      <stop
         offset="0"
         style="stop-color:#0053bd;stop-opacity:1"
         id="stop3498" />
      <stop
         offset="0.99440002"
         style="stop-color:#0032a4;stop-opacity:1"
         id="stop3500" />
    </linearGradient>
    <linearGradient
       gradientTransform="matrix(2.4117309,0,0,2.4117309,-1790.3582,-1817.4903)"
       gradientUnits="userSpaceOnUse"
       id="SVGID_7_"
       y2="1069.14"
       x2="690.94098"
       y1="977.15698"
       x1="690.94098">
      <stop
         offset="0"
         style="stop-color:#ffffff;stop-opacity:1"
         id="stop3533" />
      <stop
         offset="1"
         style="stop-color:#94caff;stop-opacity:1"
         id="stop3535" />
    </linearGradient>
    <linearGradient
       gradientTransform="matrix(7.6562887,0,0,7.6562887,-188.32754,493.2054)"
       gradientUnits="userSpaceOnUse"
       id="SVGID_8_"
       y2="32.2952"
       x2="19.853399"
       y1="5.1606002"
       x1="25.3057">
      <stop
         offset="0"
         style="stop-color:#ffffff;stop-opacity:1"
         id="stop3540" />
      <stop
         offset="0.49720001"
         style="stop-color:#00a100;stop-opacity:1"
         id="stop3542" />
      <stop
         offset="0.99440002"
         style="stop-color:#000000;stop-opacity:1"
         id="stop3544" />
    </linearGradient>
  </defs>
  <metadata
     id="metadata3068">
    <rdf:RDF>
      <cc:Work
         rdf:about="">
        <dc:format>image/svg+xml</dc:format>
        <dc:type
           rdf:resource="http://purl.org/dc/dcmitype/StillImage" />
        <dc:title></dc:title>
      </cc:Work>
    </rdf:RDF>
  </metadata>
  <path
     style="fill:#b3b3b3"
     d="M 271.46875 3.0625 C 160.30711 3.8934572 54.614342 80.216918 18.65625 185.25 C -11.9697 270.23421 2.9837106 370.46871 58.65625 441.75 C 87.781352 480.3648 127.56057 510.75855 172.15625 529.4375 L 172.15625 480.375 C 136.90398 462.26607 106.25388 435.13615 84.90625 401.65625 C 47.504421 344.88457 36.783858 270.70377 58.71875 205.96875 C 80.222522 139.57024 133.32424 84.769882 199 61.3125 C 223.75113 52.148631 250.07604 47.482643 276.53125 47.46875 C 351.15805 46.930982 423.78997 86.279069 465.8125 147.0625 L 466.3125 146.5625 L 485.40625 146.5625 L 517.375 146.5625 C 492.51509 100.6928 454.69696 61.864715 408.5625 37.125 C 368.48849 14.964457 322.7569 2.6123033 276.78125 3.0625 C 275.0143 3.0374579 273.23322 3.0493102 271.46875 3.0625 z M 550.03125 290.875 L 495.09375 345.28125 C 491.55919 356.73514 487.10862 367.88905 481.8125 378.625 L 511.8125 416.09375 C 534.27161 378.20964 547.54594 334.84843 550.03125 290.875 z M 356.8125 491.03125 C 354.10973 492.05545 351.3948 493.046 348.65625 493.96875 L 348.65625 540.46875 C 361.17675 537.02491 373.462 532.7192 385.375 527.5625 L 356.8125 491.03125 z "
     id="path3502" />
  <path
     inkscape:connector-curvature="0"
     style="fill:#000000"
     id="path3315"
     clip-path="url(#SVGID_5_-12)"
     transform="matrix(0.91452161,0,0,0.91452161,480.85665,257.53294)"
     d="m 200.897,116.781 c -1.04,0 -2.184,0.428 -3.348,1.089 2.741,-0.802 4.03,-1.089 3.348,-1.089 m 67.869,13.235 0.677,-9.925 -10.473,0.655 1.382,9.27 h 8.414 M 150.528,301.594 c -2.113,-1.988 -0.699,-10.608 -0.699,-10.608 0,0 -31.488,-16.545 -65.767,-26.493 -4.227,-1.225 -2.091,-9.932 2.091,-13.23 l -1.387,-9.297 c -0.693,-4.622 7.005,-27.148 14.698,-29.12 7.699,-2 -0.705,13.235 -0.705,13.235 l -7.688,4.637 c 0,0 9.092,10.592 11.199,10.592 2.092,0 5.591,-5.31 5.591,-5.31 l -9.79,-6.604 9.091,-3.988 0.574,-3.489 1.528,-0.487 15.062,-22.809 c 10.407,-4.258 23.199,-9.535 24.824,-10.31 2.806,-1.316 22.387,-12.569 25.887,-15.213 3.51,-2.666 11.187,-1.988 13.982,-1.988 2.812,0 7,-1.333 7.698,-8.631 0.699,-7.281 3.5,-8.608 5.607,-6.615 2.102,1.967 -2.107,5.293 2.796,6.615 4.893,1.333 9.092,4.644 12.597,1.333 2.557,-2.422 -0.867,-5.186 -3.17,-7.271 h 38.846 l 4.205,-11.947 -9.097,-1.321 -33.596,-3.305 v -3.982 l -2.676,0.456 c 3.635,-19.987 25.236,-16.692 8.972,-28.259 -0.986,-0.71 -15.213,22.418 -18.837,21.97 -6.562,-0.868 -15.029,-0.938 -16.833,1.197 -2.396,2.817 5.363,-9.688 12.038,-13.479 -7.964,2.346 -22.234,-4.903 -47.964,13.273 -8.701,6.15 -30.541,31.066 -39.528,40.645 -37.968,44.826 -41.029,83.175 -41.029,84.876 0,3.31 8.04,5.179 8.733,9.167 0.704,3.95 -13.29,17.218 -13.29,23.839 0,3.044 -7.005,36.114 8.381,77.496 13.647,39.257 40.054,73.879 43.445,76.046 l 9.725,-5.158 c 0,0 -16.091,-28.486 -16.784,-31.141 -0.693,-2.647 18.188,-41.068 27.295,-39.727 9.091,1.29 6.994,3.968 12.591,0.65 5.602,-3.292 9.096,-30.479 15.392,-33.113 6.301,-2.663 13.29,-5.969 12.596,-12.592 -0.729,-6.644 -24.513,-18.557 -26.604,-20.54 m 151.819,-194.755 -18.888,-6.626 3.5,10.608 15.388,-3.982 m -70.666,24.511 c 2.107,0 44.074,-27.81 39.881,-28.481 -4.188,-0.655 -4.887,0 -16.102,-1.327 -11.177,-1.322 -23.084,15.901 -25.875,18.562 -2.802,2.647 -1.859,11.246 2.096,11.246 m 192.63,199.731 5.42,-7.031 -5.42,-1.905 -4.062,5.104 -4.734,7.02 4.05,1.909 4.746,-5.097 m 23.687,22.995 -1.356,-10.228 h -8.785 l -0.682,7.659 -8.139,-1.269 -2.016,-8.3 -4.063,-2.559 -4.745,5.745 -4.735,-1.268 -1.366,4.452 5.428,1.301 v 41.479 l 19.159,4.615 c -0.445,0.759 -0.771,1.41 -0.879,1.756 -1.364,4.477 5.406,6.415 10.144,4.477 1.753,-0.705 12.797,-4.952 16.295,-13.283 4.879,-11.605 8.03,-28.314 8.877,-33.722 l -2.146,-4.693 -13.545,5.117 -7.466,-1.28 h 0.02 m -6.783,-169.88 c -30.978,-46.973 -105.41,-77.669 -105.41,-77.669 l -19.166,10.039 -2.722,-4.453 -6.761,-2.563 v 5.753 l 6.091,5.115 -4.053,1.912 -15.582,1.268 -35.211,19.158 3.381,15.322 -4.075,1.284 -2.015,3.186 11.512,17.223 0.671,5.759 -9.476,1.913 v 11.486 l -5.412,1.273 0.677,8.944 -46.058,31.938 1.355,17.852 c 3.38,4.475 29.798,31.293 29.798,31.293 0,0 30.464,1.263 37.237,-2.551 6.777,-3.831 2.025,3.831 4.068,5.748 2.016,1.923 2.709,15.322 4.724,16.601 2.038,1.271 0,8.923 2.709,11.502 2.71,2.534 2.71,33.19 2.71,33.19 0,0 16.252,27.445 16.252,34.468 0,7.021 -0.683,6.382 12.189,5.742 12.863,-0.628 15.571,-5.742 18.281,-7.649 2.709,-1.908 2.709,-6.383 5.417,-10.229 2.731,-3.839 7.455,-18.499 13.556,-23.602 6.078,-5.126 22.343,-8.96 23.686,-17.879 1.356,-8.949 7.443,-15.972 7.443,-15.972 l 29.278,-30.968 -0.823,4.161 -0.671,15.95 8.81,-3.187 -0.672,-17.25 -3.154,-3.343 0.446,-0.487 c 0,0 -2.037,-3.831 -4.734,-3.831 -2.712,0 -18.974,3.831 -21.672,3.196 -2.711,-0.644 -14.228,-31.292 -16.253,-32.549 -2.039,-1.279 -14.889,-22.359 -14.889,-22.359 0,0 29.776,35.751 34.521,49.795 2.751,8.18 13.089,0.563 21.497,-7.97 l 2.222,5.429 5.407,-1.29 -0.671,-6.381 h 6.088 v 9.573 l -2.024,5.115 -0.694,8.29 5.429,5.119 2.71,-4.459 8.776,-8.311 10.162,-5.108 2.721,5.108 1.354,7.027 -2.709,7.655 -5.417,4.47 -2.708,11.491 v 5.743 l -6.091,-3.836 -0.671,-12.118 -8.8,0.648 -4.051,10.842 6.089,8.948 14.216,1.92 11.507,-10.868 1.354,-21.044 5.127,-6.766 c 3.337,8.576 5.722,17.548 5.722,25.914 0,9.167 7.259,-4.628 3.707,-32.583 0.003,-0.001 -5.567,-66.402 -36.255,-97.088 z m -135.423,27.505 -36.561,-1.294 15.56,-12.759 h 8.127 l 12.874,8.928 v 5.125 m 44.706,-4.469 v 5.743 h -15.569 l 1.354,3.841 -9.493,1.289 -0.66,3.169 -6.772,-1.256 -12.2,-2.568 2.038,-3.181 2.037,-3.846 6.771,-7.022 2.72,5.115 10.142,-0.646 5.418,-5.754 20.999,3.836 -6.785,1.28 m 1.345,-8.305 -8.128,1.273 -1.343,-5.753 10.143,-1.268 1.366,-5.743 7.454,7.666 -9.492,3.814 v 0.011 m 39.289,198.535 -4.746,3.837 0.674,9.579 h 6.088 v -8.278 l 5.441,-7.043 v -14.672 l -3.404,-0.662 -4.053,17.239 0,0 m -45.369,-19.135 c 0,0 -4.746,1.234 0.662,3.185 5.418,1.93 27.09,-31.271 27.09,-31.271 l -18.291,11.487 -9.472,16.6 h 0.011 m -36.862,122.355 -4.052,-3.858 -8.127,-1.289 -1.343,3.869 -10.836,-1.278 -0.681,-5.135 h -8.123 l -8.798,5.135 h -15.56 l -1.355,-3.856 -25.041,-2.59 -4.063,3.867 -10.138,-2.556 -1.359,-9.016 -4.735,-0.661 -5.418,9.677 -18.273,-0.65 c 3.272,1.538 30.551,17.824 72.403,21.214 55.5,4.487 81.896,-8.991 81.896,-8.991 l -2.025,-1.951 -24.371,-1.918 v -0.013 l -10e-4,0 z" />
  <path
     inkscape:connector-curvature="0"
     style="fill:#000000"
     id="path3315-1"
     clip-path="url(#SVGID_5_-3)"
     transform="matrix(0.91452161,0,0,0.91452161,-100.03346,-211.71673)"
     d="m 200.897,116.781 c -1.04,0 -2.184,0.428 -3.348,1.089 2.741,-0.802 4.03,-1.089 3.348,-1.089 m 67.869,13.235 0.677,-9.925 -10.473,0.655 1.382,9.27 h 8.414 M 150.528,301.594 c -2.113,-1.988 -0.699,-10.608 -0.699,-10.608 0,0 -31.488,-16.545 -65.767,-26.493 -4.227,-1.225 -2.091,-9.932 2.091,-13.23 l -1.387,-9.297 c -0.693,-4.622 7.005,-27.148 14.698,-29.12 7.699,-2 -0.705,13.235 -0.705,13.235 l -7.688,4.637 c 0,0 9.092,10.592 11.199,10.592 2.092,0 5.591,-5.31 5.591,-5.31 l -9.79,-6.604 9.091,-3.988 0.574,-3.489 1.528,-0.487 15.062,-22.809 c 10.407,-4.258 23.199,-9.535 24.824,-10.31 2.806,-1.316 22.387,-12.569 25.887,-15.213 3.51,-2.666 11.187,-1.988 13.982,-1.988 2.812,0 7,-1.333 7.698,-8.631 0.699,-7.281 3.5,-8.608 5.607,-6.615 2.102,1.967 -2.107,5.293 2.796,6.615 4.893,1.333 9.092,4.644 12.597,1.333 2.557,-2.422 -0.867,-5.186 -3.17,-7.271 h 38.846 l 4.205,-11.947 -9.097,-1.321 -33.596,-3.305 v -3.982 l -2.676,0.456 c 3.635,-19.987 25.236,-16.692 8.972,-28.259 -0.986,-0.71 -15.213,22.418 -18.837,21.97 -6.562,-0.868 -15.029,-0.938 -16.833,1.197 -2.396,2.817 5.363,-9.688 12.038,-13.479 -7.964,2.346 -22.234,-4.903 -47.964,13.273 -8.701,6.15 -30.541,31.066 -39.528,40.645 -37.968,44.826 -41.029,83.175 -41.029,84.876 0,3.31 8.04,5.179 8.733,9.167 0.704,3.95 -13.29,17.218 -13.29,23.839 0,3.044 -7.005,36.114 8.381,77.496 13.647,39.257 40.054,73.879 43.445,76.046 l 9.725,-5.158 c 0,0 -16.091,-28.486 -16.784,-31.141 -0.693,-2.647 18.188,-41.068 27.295,-39.727 9.091,1.29 6.994,3.968 12.591,0.65 5.602,-3.292 9.096,-30.479 15.392,-33.113 6.301,-2.663 13.29,-5.969 12.596,-12.592 -0.729,-6.644 -24.513,-18.557 -26.604,-20.54 m 151.819,-194.755 -18.888,-6.626 3.5,10.608 15.388,-3.982 m -70.666,24.511 c 2.107,0 44.074,-27.81 39.881,-28.481 -4.188,-0.655 -4.887,0 -16.102,-1.327 -11.177,-1.322 -23.084,15.901 -25.875,18.562 -2.802,2.647 -1.859,11.246 2.096,11.246 m 192.63,199.731 5.42,-7.031 -5.42,-1.905 -4.062,5.104 -4.734,7.02 4.05,1.909 4.746,-5.097 m 23.687,22.995 -1.356,-10.228 h -8.785 l -0.682,7.659 -8.139,-1.269 -2.016,-8.3 -4.063,-2.559 -4.745,5.745 -4.735,-1.268 -1.366,4.452 5.428,1.301 v 41.479 l 19.159,4.615 c -0.445,0.759 -0.771,1.41 -0.879,1.756 -1.364,4.477 5.406,6.415 10.144,4.477 1.753,-0.705 12.797,-4.952 16.295,-13.283 4.879,-11.605 8.03,-28.314 8.877,-33.722 l -2.146,-4.693 -13.545,5.117 -7.466,-1.28 h 0.02 m -6.783,-169.88 c -30.978,-46.973 -105.41,-77.669 -105.41,-77.669 l -19.166,10.039 -2.722,-4.453 -6.761,-2.563 v 5.753 l 6.091,5.115 -4.053,1.912 -15.582,1.268 -35.211,19.158 3.381,15.322 -4.075,1.284 -2.015,3.186 11.512,17.223 0.671,5.759 -9.476,1.913 v 11.486 l -5.412,1.273 0.677,8.944 -46.058,31.938 1.355,17.852 c 3.38,4.475 29.798,31.293 29.798,31.293 0,0 30.464,1.263 37.237,-2.551 6.777,-3.831 2.025,3.831 4.068,5.748 2.016,1.923 2.709,15.322 4.724,16.601 2.038,1.271 0,8.923 2.709,11.502 2.71,2.534 2.71,33.19 2.71,33.19 0,0 16.252,27.445 16.252,34.468 0,7.021 -0.683,6.382 12.189,5.742 12.863,-0.628 15.571,-5.742 18.281,-7.649 2.709,-1.908 2.709,-6.383 5.417,-10.229 2.731,-3.839 7.455,-18.499 13.556,-23.602 6.078,-5.126 22.343,-8.96 23.686,-17.879 1.356,-8.949 7.443,-15.972 7.443,-15.972 l 29.278,-30.968 -0.823,4.161 -0.671,15.95 8.81,-3.187 -0.672,-17.25 -3.154,-3.343 0.446,-0.487 c 0,0 -2.037,-3.831 -4.734,-3.831 -2.712,0 -18.974,3.831 -21.672,3.196 -2.711,-0.644 -14.228,-31.292 -16.253,-32.549 -2.039,-1.279 -14.889,-22.359 -14.889,-22.359 0,0 29.776,35.751 34.521,49.795 2.751,8.18 13.089,0.563 21.497,-7.97 l 2.222,5.429 5.407,-1.29 -0.671,-6.381 h 6.088 v 9.573 l -2.024,5.115 -0.694,8.29 5.429,5.119 2.71,-4.459 8.776,-8.311 10.162,-5.108 2.721,5.108 1.354,7.027 -2.709,7.655 -5.417,4.47 -2.708,11.491 v 5.743 l -6.091,-3.836 -0.671,-12.118 -8.8,0.648 -4.051,10.842 6.089,8.948 14.216,1.92 11.507,-10.868 1.354,-21.044 5.127,-6.766 c 3.337,8.576 5.722,17.548 5.722,25.914 0,9.167 7.259,-4.628 3.707,-32.583 0.003,-0.001 -5.567,-66.402 -36.255,-97.088 z m -135.423,27.505 -36.561,-1.294 15.56,-12.759 h 8.127 l 12.874,8.928 v 5.125 m 44.706,-4.469 v 5.743 h -15.569 l 1.354,3.841 -9.493,1.289 -0.66,3.169 -6.772,-1.256 -12.2,-2.568 2.038,-3.181 2.037,-3.846 6.771,-7.022 2.72,5.115 10.142,-0.646 5.418,-5.754 20.999,3.836 -6.785,1.28 m 1.345,-8.305 -8.128,1.273 -1.343,-5.753 10.143,-1.268 1.366,-5.743 7.454,7.666 -9.492,3.814 v 0.011 m 39.289,198.535 -4.746,3.837 0.674,9.579 h 6.088 v -8.278 l 5.441,-7.043 v -14.672 l -3.404,-0.662 -4.053,17.239 0,0 m -45.369,-19.135 c 0,0 -4.746,1.234 0.662,3.185 5.418,1.93 27.09,-31.271 27.09,-31.271 l -18.291,11.487 -9.472,16.6 h 0.011 m -36.862,122.355 -4.052,-3.858 -8.127,-1.289 -1.343,3.869 -10.836,-1.278 -0.681,-5.135 h -8.123 l -8.798,5.135 h -15.56 l -1.355,-3.856 -25.041,-2.59 -4.063,3.867 -10.138,-2.556 -1.359,-9.016 -4.735,-0.661 -5.418,9.677 -18.273,-0.65 c 3.272,1.538 30.551,17.824 72.403,21.214 55.5,4.487 81.896,-8.991 81.896,-8.991 l -2.025,-1.951 -24.371,-1.918 v -0.013 l -10e-4,0 z" />
  <path
     inkscape:connector-curvature="0"
     style="fill:#000000"
     id="path3315-4"
     clip-path="url(#SVGID_5_-0)"
     transform="matrix(0.91452161,0,0,0.91452161,-100.03346,-211.71673)"
     d="m 200.897,116.781 c -1.04,0 -2.184,0.428 -3.348,1.089 2.741,-0.802 4.03,-1.089 3.348,-1.089 m 67.869,13.235 0.677,-9.925 -10.473,0.655 1.382,9.27 h 8.414 M 150.528,301.594 c -2.113,-1.988 -0.699,-10.608 -0.699,-10.608 0,0 -31.488,-16.545 -65.767,-26.493 -4.227,-1.225 -2.091,-9.932 2.091,-13.23 l -1.387,-9.297 c -0.693,-4.622 7.005,-27.148 14.698,-29.12 7.699,-2 -0.705,13.235 -0.705,13.235 l -7.688,4.637 c 0,0 9.092,10.592 11.199,10.592 2.092,0 5.591,-5.31 5.591,-5.31 l -9.79,-6.604 9.091,-3.988 0.574,-3.489 1.528,-0.487 15.062,-22.809 c 10.407,-4.258 23.199,-9.535 24.824,-10.31 2.806,-1.316 22.387,-12.569 25.887,-15.213 3.51,-2.666 11.187,-1.988 13.982,-1.988 2.812,0 7,-1.333 7.698,-8.631 0.699,-7.281 3.5,-8.608 5.607,-6.615 2.102,1.967 -2.107,5.293 2.796,6.615 4.893,1.333 9.092,4.644 12.597,1.333 2.557,-2.422 -0.867,-5.186 -3.17,-7.271 h 38.846 l 4.205,-11.947 -9.097,-1.321 -33.596,-3.305 v -3.982 l -2.676,0.456 c 3.635,-19.987 25.236,-16.692 8.972,-28.259 -0.986,-0.71 -15.213,22.418 -18.837,21.97 -6.562,-0.868 -15.029,-0.938 -16.833,1.197 -2.396,2.817 5.363,-9.688 12.038,-13.479 -7.964,2.346 -22.234,-4.903 -47.964,13.273 -8.701,6.15 -30.541,31.066 -39.528,40.645 -37.968,44.826 -41.029,83.175 -41.029,84.876 0,3.31 8.04,5.179 8.733,9.167 0.704,3.95 -13.29,17.218 -13.29,23.839 0,3.044 -7.005,36.114 8.381,77.496 13.647,39.257 40.054,73.879 43.445,76.046 l 9.725,-5.158 c 0,0 -16.091,-28.486 -16.784,-31.141 -0.693,-2.647 18.188,-41.068 27.295,-39.727 9.091,1.29 6.994,3.968 12.591,0.65 5.602,-3.292 9.096,-30.479 15.392,-33.113 6.301,-2.663 13.29,-5.969 12.596,-12.592 -0.729,-6.644 -24.513,-18.557 -26.604,-20.54 m 151.819,-194.755 -18.888,-6.626 3.5,10.608 15.388,-3.982 m -70.666,24.511 c 2.107,0 44.074,-27.81 39.881,-28.481 -4.188,-0.655 -4.887,0 -16.102,-1.327 -11.177,-1.322 -23.084,15.901 -25.875,18.562 -2.802,2.647 -1.859,11.246 2.096,11.246 m 192.63,199.731 5.42,-7.031 -5.42,-1.905 -4.062,5.104 -4.734,7.02 4.05,1.909 4.746,-5.097 m 23.687,22.995 -1.356,-10.228 h -8.785 l -0.682,7.659 -8.139,-1.269 -2.016,-8.3 -4.063,-2.559 -4.745,5.745 -4.735,-1.268 -1.366,4.452 5.428,1.301 v 41.479 l 19.159,4.615 c -0.445,0.759 -0.771,1.41 -0.879,1.756 -1.364,4.477 5.406,6.415 10.144,4.477 1.753,-0.705 12.797,-4.952 16.295,-13.283 4.879,-11.605 8.03,-28.314 8.877,-33.722 l -2.146,-4.693 -13.545,5.117 -7.466,-1.28 h 0.02 m -6.783,-169.88 c -30.978,-46.973 -105.41,-77.669 -105.41,-77.669 l -19.166,10.039 -2.722,-4.453 -6.761,-2.563 v 5.753 l 6.091,5.115 -4.053,1.912 -15.582,1.268 -35.211,19.158 3.381,15.322 -4.075,1.284 -2.015,3.186 11.512,17.223 0.671,5.759 -9.476,1.913 v 11.486 l -5.412,1.273 0.677,8.944 -46.058,31.938 1.355,17.852 c 3.38,4.475 29.798,31.293 29.798,31.293 0,0 30.464,1.263 37.237,-2.551 6.777,-3.831 2.025,3.831 4.068,5.748 2.016,1.923 2.709,15.322 4.724,16.601 2.038,1.271 0,8.923 2.709,11.502 2.71,2.534 2.71,33.19 2.71,33.19 0,0 16.252,27.445 16.252,34.468 0,7.021 -0.683,6.382 12.189,5.742 12.863,-0.628 15.571,-5.742 18.281,-7.649 2.709,-1.908 2.709,-6.383 5.417,-10.229 2.731,-3.839 7.455,-18.499 13.556,-23.602 6.078,-5.126 22.343,-8.96 23.686,-17.879 1.356,-8.949 7.443,-15.972 7.443,-15.972 l 29.278,-30.968 -0.823,4.161 -0.671,15.95 8.81,-3.187 -0.672,-17.25 -3.154,-3.343 0.446,-0.487 c 0,0 -2.037,-3.831 -4.734,-3.831 -2.712,0 -18.974,3.831 -21.672,3.196 -2.711,-0.644 -14.228,-31.292 -16.253,-32.549 -2.039,-1.279 -14.889,-22.359 -14.889,-22.359 0,0 29.776,35.751 34.521,49.795 2.751,8.18 13.089,0.563 21.497,-7.97 l 2.222,5.429 5.407,-1.29 -0.671,-6.381 h 6.088 v 9.573 l -2.024,5.115 -0.694,8.29 5.429,5.119 2.71,-4.459 8.776,-8.311 10.162,-5.108 2.721,5.108 1.354,7.027 -2.709,7.655 -5.417,4.47 -2.708,11.491 v 5.743 l -6.091,-3.836 -0.671,-12.118 -8.8,0.648 -4.051,10.842 6.089,8.948 14.216,1.92 11.507,-10.868 1.354,-21.044 5.127,-6.766 c 3.337,8.576 5.722,17.548 5.722,25.914 0,9.167 7.259,-4.628 3.707,-32.583 0.003,-0.001 -5.567,-66.402 -36.255,-97.088 z m -135.423,27.505 -36.561,-1.294 15.56,-12.759 h 8.127 l 12.874,8.928 v 5.125 m 44.706,-4.469 v 5.743 h -15.569 l 1.354,3.841 -9.493,1.289 -0.66,3.169 -6.772,-1.256 -12.2,-2.568 2.038,-3.181 2.037,-3.846 6.771,-7.022 2.72,5.115 10.142,-0.646 5.418,-5.754 20.999,3.836 -6.785,1.28 m 1.345,-8.305 -8.128,1.273 -1.343,-5.753 10.143,-1.268 1.366,-5.743 7.454,7.666 -9.492,3.814 v 0.011 m 39.289,198.535 -4.746,3.837 0.674,9.579 h 6.088 v -8.278 l 5.441,-7.043 v -14.672 l -3.404,-0.662 -4.053,17.239 0,0 m -45.369,-19.135 c 0,0 -4.746,1.234 0.662,3.185 5.418,1.93 27.09,-31.271 27.09,-31.271 l -18.291,11.487 -9.472,16.6 h 0.011 m -36.862,122.355 -4.052,-3.858 -8.127,-1.289 -1.343,3.869 -10.836,-1.278 -0.681,-5.135 h -8.123 l -8.798,5.135 h -15.56 l -1.355,-3.856 -25.041,-2.59 -4.063,3.867 -10.138,-2.556 -1.359,-9.016 -4.735,-0.661 -5.418,9.677 -18.273,-0.65 c 3.272,1.538 30.551,17.824 72.403,21.214 55.5,4.487 81.896,-8.991 81.896,-8.991 l -2.025,-1.951 -24.371,-1.918 v -0.013 l -10e-4,0 z" />
  <path
     inkscape:connector-curvature="0"
     style="fill:#000000"
     id="path3315-0"
     clip-path="url(#SVGID_5_-8)"
     transform="matrix(0.91452161,0,0,0.91452161,-100.03346,-211.71673)"
     d="m 200.897,116.781 c -1.04,0 -2.184,0.428 -3.348,1.089 2.741,-0.802 4.03,-1.089 3.348,-1.089 m 67.869,13.235 0.677,-9.925 -10.473,0.655 1.382,9.27 h 8.414 M 150.528,301.594 c -2.113,-1.988 -0.699,-10.608 -0.699,-10.608 0,0 -31.488,-16.545 -65.767,-26.493 -4.227,-1.225 -2.091,-9.932 2.091,-13.23 l -1.387,-9.297 c -0.693,-4.622 7.005,-27.148 14.698,-29.12 7.699,-2 -0.705,13.235 -0.705,13.235 l -7.688,4.637 c 0,0 9.092,10.592 11.199,10.592 2.092,0 5.591,-5.31 5.591,-5.31 l -9.79,-6.604 9.091,-3.988 0.574,-3.489 1.528,-0.487 15.062,-22.809 c 10.407,-4.258 23.199,-9.535 24.824,-10.31 2.806,-1.316 22.387,-12.569 25.887,-15.213 3.51,-2.666 11.187,-1.988 13.982,-1.988 2.812,0 7,-1.333 7.698,-8.631 0.699,-7.281 3.5,-8.608 5.607,-6.615 2.102,1.967 -2.107,5.293 2.796,6.615 4.893,1.333 9.092,4.644 12.597,1.333 2.557,-2.422 -0.867,-5.186 -3.17,-7.271 h 38.846 l 4.205,-11.947 -9.097,-1.321 -33.596,-3.305 v -3.982 l -2.676,0.456 c 3.635,-19.987 25.236,-16.692 8.972,-28.259 -0.986,-0.71 -15.213,22.418 -18.837,21.97 -6.562,-0.868 -15.029,-0.938 -16.833,1.197 -2.396,2.817 5.363,-9.688 12.038,-13.479 -7.964,2.346 -22.234,-4.903 -47.964,13.273 -8.701,6.15 -30.541,31.066 -39.528,40.645 -37.968,44.826 -41.029,83.175 -41.029,84.876 0,3.31 8.04,5.179 8.733,9.167 0.704,3.95 -13.29,17.218 -13.29,23.839 0,3.044 -7.005,36.114 8.381,77.496 13.647,39.257 40.054,73.879 43.445,76.046 l 9.725,-5.158 c 0,0 -16.091,-28.486 -16.784,-31.141 -0.693,-2.647 18.188,-41.068 27.295,-39.727 9.091,1.29 6.994,3.968 12.591,0.65 5.602,-3.292 9.096,-30.479 15.392,-33.113 6.301,-2.663 13.29,-5.969 12.596,-12.592 -0.729,-6.644 -24.513,-18.557 -26.604,-20.54 m 151.819,-194.755 -18.888,-6.626 3.5,10.608 15.388,-3.982 m -70.666,24.511 c 2.107,0 44.074,-27.81 39.881,-28.481 -4.188,-0.655 -4.887,0 -16.102,-1.327 -11.177,-1.322 -23.084,15.901 -25.875,18.562 -2.802,2.647 -1.859,11.246 2.096,11.246 m 192.63,199.731 5.42,-7.031 -5.42,-1.905 -4.062,5.104 -4.734,7.02 4.05,1.909 4.746,-5.097 m 23.687,22.995 -1.356,-10.228 h -8.785 l -0.682,7.659 -8.139,-1.269 -2.016,-8.3 -4.063,-2.559 -4.745,5.745 -4.735,-1.268 -1.366,4.452 5.428,1.301 v 41.479 l 19.159,4.615 c -0.445,0.759 -0.771,1.41 -0.879,1.756 -1.364,4.477 5.406,6.415 10.144,4.477 1.753,-0.705 12.797,-4.952 16.295,-13.283 4.879,-11.605 8.03,-28.314 8.877,-33.722 l -2.146,-4.693 -13.545,5.117 -7.466,-1.28 h 0.02 m -6.783,-169.88 c -30.978,-46.973 -105.41,-77.669 -105.41,-77.669 l -19.166,10.039 -2.722,-4.453 -6.761,-2.563 v 5.753 l 6.091,5.115 -4.053,1.912 -15.582,1.268 -35.211,19.158 3.381,15.322 -4.075,1.284 -2.015,3.186 11.512,17.223 0.671,5.759 -9.476,1.913 v 11.486 l -5.412,1.273 0.677,8.944 -46.058,31.938 1.355,17.852 c 3.38,4.475 29.798,31.293 29.798,31.293 0,0 30.464,1.263 37.237,-2.551 6.777,-3.831 2.025,3.831 4.068,5.748 2.016,1.923 2.709,15.322 4.724,16.601 2.038,1.271 0,8.923 2.709,11.502 2.71,2.534 2.71,33.19 2.71,33.19 0,0 16.252,27.445 16.252,34.468 0,7.021 -0.683,6.382 12.189,5.742 12.863,-0.628 15.571,-5.742 18.281,-7.649 2.709,-1.908 2.709,-6.383 5.417,-10.229 2.731,-3.839 7.455,-18.499 13.556,-23.602 6.078,-5.126 22.343,-8.96 23.686,-17.879 1.356,-8.949 7.443,-15.972 7.443,-15.972 l 29.278,-30.968 -0.823,4.161 -0.671,15.95 8.81,-3.187 -0.672,-17.25 -3.154,-3.343 0.446,-0.487 c 0,0 -2.037,-3.831 -4.734,-3.831 -2.712,0 -18.974,3.831 -21.672,3.196 -2.711,-0.644 -14.228,-31.292 -16.253,-32.549 -2.039,-1.279 -14.889,-22.359 -14.889,-22.359 0,0 29.776,35.751 34.521,49.795 2.751,8.18 13.089,0.563 21.497,-7.97 l 2.222,5.429 5.407,-1.29 -0.671,-6.381 h 6.088 v 9.573 l -2.024,5.115 -0.694,8.29 5.429,5.119 2.71,-4.459 8.776,-8.311 10.162,-5.108 2.721,5.108 1.354,7.027 -2.709,7.655 -5.417,4.47 -2.708,11.491 v 5.743 l -6.091,-3.836 -0.671,-12.118 -8.8,0.648 -4.051,10.842 6.089,8.948 14.216,1.92 11.507,-10.868 1.354,-21.044 5.127,-6.766 c 3.337,8.576 5.722,17.548 5.722,25.914 0,9.167 7.259,-4.628 3.707,-32.583 0.003,-0.001 -5.567,-66.402 -36.255,-97.088 z m -135.423,27.505 -36.561,-1.294 15.56,-12.759 h 8.127 l 12.874,8.928 v 5.125 m 44.706,-4.469 v 5.743 h -15.569 l 1.354,3.841 -9.493,1.289 -0.66,3.169 -6.772,-1.256 -12.2,-2.568 2.038,-3.181 2.037,-3.846 6.771,-7.022 2.72,5.115 10.142,-0.646 5.418,-5.754 20.999,3.836 -6.785,1.28 m 1.345,-8.305 -8.128,1.273 -1.343,-5.753 10.143,-1.268 1.366,-5.743 7.454,7.666 -9.492,3.814 v 0.011 m 39.289,198.535 -4.746,3.837 0.674,9.579 h 6.088 v -8.278 l 5.441,-7.043 v -14.672 l -3.404,-0.662 -4.053,17.239 0,0 m -45.369,-19.135 c 0,0 -4.746,1.234 0.662,3.185 5.418,1.93 27.09,-31.271 27.09,-31.271 l -18.291,11.487 -9.472,16.6 h 0.011 m -36.862,122.355 -4.052,-3.858 -8.127,-1.289 -1.343,3.869 -10.836,-1.278 -0.681,-5.135 h -8.123 l -8.798,5.135 h -15.56 l -1.355,-3.856 -25.041,-2.59 -4.063,3.867 -10.138,-2.556 -1.359,-9.016 -4.735,-0.661 -5.418,9.677 -18.273,-0.65 c 3.272,1.538 30.551,17.824 72.403,21.214 55.5,4.487 81.896,-8.991 81.896,-8.991 l -2.025,-1.951 -24.371,-1.918 v -0.013 l -10e-4,0 z" />
  <path
     inkscape:connector-curvature="0"
     id="path3263"
     style="font-size:588.86883545000000595px;font-style:normal;font-variant:normal;font-weight:bold;font-stretch:normal;line-height:125%;letter-spacing:0px;word-spacing:0px;fill:#ffffff;fill-opacity:1;stroke:none;font-family:Liberation Sans;-inkscape-font-specification:Liberation Sans Bold"
     d="m 498.3392,597.55389 -145.49201,-186.03424 -50.03085,38.24197 0,147.79227 -84.82241,0 0,-405.13485 84.82241,0 0,183.73397 182.58384,-183.73397 98.91157,0 -173.09524,171.37003 187.18438,233.76482 -100.06169,0" />
</svg>
